<svg width="995" height="220" viewBox="0 0 995 220" fill="none" xmlns="http://www.w3.org/2000/svg">
<g clip-path="url(#clip0_443_3)">
<mask id="mask0_443_3" style="mask-type:luminance" maskUnits="userSpaceOnUse" x="0" y="0" width="995" height="220">
<path d="M995 0H0V220H995V0Z" fill="white"/>
</mask>
<g mask="url(#mask0_443_3)">
<path d="M48.3485 92.641C36.8405 106.501 28.4109 122.649 23.6187 140.015C23.9111 140.161 24.2336 140.238 24.5606 140.238L80.7502 140.23C78.3962 106.848 61.0983 80.53 60.5863 79.759C56.2048 83.7554 52.115 88.0604 48.3485 92.641Z" fill="#0C177B"/>
<path d="M188.493 79.761H60.5856C60.5856 79.761 81.8275 111.536 80.9905 149.881C80.0215 194.292 57.1807 219.981 57.1807 219.981L119.194 219.991C119.493 217.819 120.365 215.767 121.722 214.045C126.362 208.028 136.106 205.563 142.822 209.321C146.856 211.577 148.473 215.734 148.122 220H186.122C186.122 220 207.208 195.273 209.49 153.512C212.012 107.35 188.491 79.761 188.491 79.761" fill="#185BDB"/>
<path d="M22.9087 139.436C19.3467 134.875 2.23182 111.136 0.18984 73.752C-2.08214 32.179 16.7677 5.66901 20.5387 0.810012C20.7342 0.557641 20.9849 0.353415 21.2716 0.213006C21.5584 0.0725958 21.8734 -0.000265544 22.1927 1.231e-05H59.6374C60.1727 -0.00182448 60.6884 0.201954 61.0778 0.569283C61.4673 0.936613 61.7009 1.43945 61.7303 1.97401C61.7633 3.79452 62.2724 5.57466 63.2072 7.1372C64.142 8.69974 65.4698 9.99017 67.0583 10.88C73.7762 14.638 83.5212 12.173 88.1581 6.15601C89.2167 4.80213 89.9868 3.24583 90.4211 1.58301C90.5329 1.13176 90.7923 0.730836 91.1581 0.443997C91.524 0.157159 91.9752 0.000878666 92.4401 1.231e-05H149.093C149.093 1.231e-05 127.851 31.774 128.693 70.12C128.765 73.438 128.96 76.653 129.258 79.76H60.5864C56.2045 83.756 52.1144 88.0607 48.3475 92.641C36.8397 106.501 28.4101 122.649 23.6177 140.015C23.3258 139.902 23.0783 139.699 22.9087 139.436Z" fill="#3399FF"/>
<path d="M620.279 180.75H618.614C607.427 180.75 596.236 180.797 585.042 180.89C584.475 180.953 583.902 180.842 583.399 180.574C582.895 180.305 582.484 179.89 582.221 179.384C574.138 166.317 566.012 153.266 557.842 140.229C557.503 139.691 557.142 139.142 556.536 138.235V179.105C556.536 180.521 556.187 180.83 554.791 180.83C545.179 180.763 535.564 180.763 525.945 180.83C524.719 180.83 524.23 180.67 524.23 179.23C524.284 131.65 524.284 84.0664 524.23 36.479C524.23 35.023 524.679 34.744 526.03 34.754C535.642 34.814 545.257 34.814 554.876 34.754C556.192 34.754 556.521 35.072 556.521 36.398C556.481 60.9934 556.481 85.5717 556.521 110.133V112.425C558.406 109.892 560.051 107.689 561.686 105.445C568.616 96.0364 575.541 86.6257 582.461 77.213C582.69 76.8462 583.016 76.5503 583.404 76.3583C583.791 76.1664 584.225 76.0859 584.656 76.126H620.09C620.09 76.926 619.502 77.282 619.09 77.731C606.87 93.0204 594.634 108.279 582.381 123.507C582.051 123.787 581.846 124.187 581.81 124.618C581.775 125.049 581.912 125.477 582.191 125.807C582.217 125.838 582.244 125.867 582.272 125.896C594.549 143.563 606.793 161.244 619.004 178.94L620.229 180.746" fill="black"/>
<path d="M931.127 112.399L949.772 87.082C952.235 83.743 954.757 80.392 957.16 77.042C957.3 76.7411 957.525 76.487 957.806 76.3097C958.086 76.1325 958.412 76.0396 958.745 76.042H995.001L988.55 84.108C978.041 97.2153 967.522 110.315 956.992 123.408C956.825 123.562 956.691 123.747 956.596 123.952C956.501 124.158 956.448 124.381 956.439 124.607C956.43 124.833 956.466 125.059 956.545 125.271C956.623 125.484 956.743 125.679 956.897 125.845C956.928 125.878 956.959 125.911 956.992 125.945C969.409 143.832 981.806 161.739 994.182 179.668C994.341 179.886 994.471 180.127 994.671 180.446C994.108 180.695 993.483 180.768 992.877 180.655H966.893C964.371 180.655 961.839 180.655 959.316 180.795C958.825 180.849 958.33 180.749 957.9 180.507C957.469 180.266 957.125 179.896 956.916 179.449C948.746 166.291 940.559 153.151 932.354 140.029L931.128 138.129V178.84C931.128 180.455 930.64 180.705 929.195 180.694C919.569 180.635 909.95 180.635 900.338 180.694C899.201 180.694 898.832 180.466 898.832 179.238V36.163C898.832 34.837 899.251 34.607 900.457 34.617C910.129 34.657 919.801 34.657 929.473 34.617C930.778 34.617 931.117 34.937 931.117 36.253C931.077 60.847 931.077 85.4417 931.117 110.037L931.127 112.399Z" fill="black"/>
<path d="M305.772 34.967H363.603C365.158 34.967 365.697 35.236 365.677 36.961C365.577 45.287 365.597 53.612 365.677 61.888C365.677 63.244 365.438 63.663 363.977 63.653C350.706 63.593 337.435 63.653 324.154 63.583C322.768 63.583 322.409 63.892 322.409 65.317C322.449 103.166 322.473 141.016 322.479 178.866C322.479 180.312 322.23 180.86 320.614 180.86C310.604 180.78 300.59 180.78 290.573 180.86C289.207 180.86 288.828 180.591 288.828 179.154C288.874 141.265 288.901 103.356 288.908 65.428C288.908 63.942 288.549 63.628 287.083 63.628C273.812 63.698 260.541 63.628 247.27 63.708C245.934 63.708 245.625 63.359 245.635 62.063C245.695 53.621 245.695 45.1824 245.635 36.747C245.635 35.347 245.954 35.002 247.37 35.002C266.833 35.062 286.256 35.002 305.749 35.002" fill="black"/>
<path d="M475.036 183.572C464.397 183.572 454.826 181.957 446.002 177.24C433.578 170.61 425.362 160.45 421.733 146.84C418.104 133.23 418.343 119.828 423.448 106.776C430.218 89.438 443.17 78.858 461.226 74.801C475.026 71.701 488.706 72.926 502.057 77.463C507.042 79.148 511.44 81.97 516.016 84.443C516.654 84.801 516.554 85.101 516.235 85.589C511.276 93.2744 506.331 100.969 501.398 108.672C500.85 109.539 500.398 109.26 499.852 108.812C496.913 106.472 493.723 104.466 490.34 102.83C476.381 96.708 458.335 102.621 453.977 121.195C452.304 127.844 452.729 134.848 455.193 141.247C459.121 151.298 468.054 156.642 478.823 156.034C486.023 155.634 492.313 152.982 498.416 149.534C500.071 148.598 501.736 147.65 503.401 146.673C503.989 146.314 504.301 146.284 504.637 147.022C508.433 155.264 512.266 163.493 516.137 171.71C516.466 172.418 516.287 172.637 515.658 172.936C505.787 177.612 495.716 181.75 484.748 182.957C481.288 183.336 477.818 183.545 475.076 183.575" fill="black"/>
<path d="M849.407 73.225C862.847 73.1803 876.01 77.0422 887.296 84.341C888.004 84.791 888.184 85.02 887.676 85.808C882.757 93.386 877.874 100.983 873.028 108.6C872.499 109.419 872.151 109.458 871.383 108.87C869.018 107.06 866.545 105.396 863.978 103.886C851.903 96.757 831.478 100.046 825.861 119.839C823.653 127.177 824.094 135.058 827.107 142.104C831.194 151.626 839.928 156.522 850.328 156.004C858.454 155.604 865.284 152.135 872.128 148.297C873.316 147.618 874.621 146.153 875.698 146.541C876.606 146.87 876.954 148.765 877.523 149.981C880.846 157.081 884.17 164.184 887.494 171.29C887.794 171.928 888.212 172.437 887.094 172.945C879.178 176.525 871.31 180.204 862.676 181.829C848.926 184.429 835.256 184.671 822.105 179.257C805.854 172.567 795.962 160.312 792.442 143.123C789.83 130.379 790.389 117.697 795.483 105.593C802.463 88.871 815.283 78.811 832.854 74.683C838.286 73.5037 843.84 72.9912 849.395 73.157" fill="black"/>
<path d="M779.992 128.612C779.992 145.423 780.008 162.233 780.042 179.044C780.042 180.589 779.601 180.839 778.185 180.829C768.567 180.769 758.952 180.769 749.34 180.829C748.054 180.829 747.795 180.5 747.795 179.264V77.8771C747.795 76.4611 748.163 76.1321 749.559 76.1421C759.171 76.2007 768.786 76.2007 778.406 76.1421C779.782 76.1421 780.031 76.5611 780.031 77.8271C779.992 94.7604 779.992 111.687 780.031 128.608" fill="black"/>
<path d="M410.216 128.613V178.886C410.216 180.322 409.987 180.88 408.351 180.88C398.689 180.78 389.008 180.81 379.336 180.88C378.149 180.88 377.87 180.571 377.87 179.404C377.91 145.542 377.91 111.688 377.87 77.841C377.87 76.494 378.239 76.186 379.545 76.196C389.216 76.256 398.888 76.256 408.56 76.196C409.916 76.196 410.215 76.585 410.215 77.881C410.175 94.8144 410.175 111.741 410.215 128.662" fill="black"/>
<path d="M394.631 35.076H408.787C409.844 35.076 410.073 35.365 410.073 36.383C410.033 44.871 410.033 53.3527 410.073 61.828C410.073 62.828 409.814 63.135 408.773 63.135C399.34 63.081 389.901 63.081 380.456 63.135C379.389 63.135 379.02 62.9051 379.02 61.7491C379.073 53.3264 379.073 44.8977 379.02 36.4631C379.02 35.2961 379.409 35.077 380.466 35.087H394.625" fill="black"/>
<path d="M764.576 35.076H778.535C779.611 35.076 779.935 35.315 779.93 36.442C779.884 44.8714 779.884 53.297 779.93 61.719C779.93 62.719 779.73 63.144 778.585 63.135C769.206 63.081 759.823 63.081 750.436 63.135C749.336 63.135 748.872 62.945 748.883 61.688C748.941 53.3267 748.941 44.9547 748.883 36.572C748.883 35.386 749.211 35.066 750.389 35.087C755.104 35.146 759.819 35.087 764.538 35.087" fill="black"/>
<path d="M631.447 107.854V36.831C631.447 35.276 631.847 34.931 633.361 34.931C650.97 34.99 668.568 34.861 686.205 35.011C694.63 35.08 703.155 35.4 710.972 38.999C720.724 43.446 729.049 49.738 733.616 59.868C736.788 66.917 737.425 74.475 737.316 82.102C737.176 90.867 735.491 99.283 731.234 107.029C724.474 119.364 713.905 126.752 700.544 130.441C689.696 133.432 678.608 133.921 667.453 133.241C665.099 133.101 665.099 133.062 665.099 135.385V179.085C665.099 180.48 664.78 180.84 663.364 180.83C653.247 180.763 643.123 180.763 632.993 180.83C631.707 180.83 631.448 180.491 631.457 179.265C631.497 155.474 631.497 131.683 631.457 107.894M665.069 102.809C665.069 103.809 665.318 104.215 666.305 104.225C668.848 104.225 671.379 104.135 673.922 104.225C678.803 104.419 683.687 103.948 688.44 102.825C694.602 101.249 699.468 98.125 701.562 91.747C702.83 87.6567 703.205 83.3418 702.662 79.094C702.435 75.6861 701.156 72.4325 699.003 69.781C695.683 65.872 691.177 64.496 686.33 63.981C679.61 63.253 672.849 63.781 666.11 63.602C664.885 63.602 665.11 64.29 665.11 65.002V102.888" fill="black"/>
</g>
</g>
<defs>
<clipPath id="clip0_443_3">
<rect width="995" height="220" fill="white"/>
</clipPath>
</defs>
</svg>
